<?xml version="1.0" encoding="UTF-8" standalone="no"?>
<svg
   width="35.75769"
   height="35.75769"
   viewBox="0 0 35.75769 35.75769"
   fill="none"
   stroke="currentColor"
   stroke-width="2"
   stroke-linecap="round"
   stroke-linejoin="round"
   class="lucide lucide-leaf-icon lucide-leaf"
   version="1.1"
   id="svg2"
   sodipodi:docname="leaf.svg"
   inkscape:version="1.4.2 (f4327f4, 2025-05-13)"
   xmlns:inkscape="http://www.inkscape.org/namespaces/inkscape"
   xmlns:sodipodi="http://sodipodi.sourceforge.net/DTD/sodipodi-0.dtd"
   xmlns="http://www.w3.org/2000/svg"
   xmlns:svg="http://www.w3.org/2000/svg">
  <defs
     id="defs2" />
  <sodipodi:namedview
     id="namedview2"
     pagecolor="#303030"
     bordercolor="#000000"
     borderopacity="0.25"
     inkscape:showpageshadow="2"
     inkscape:pageopacity="0.0"
     inkscape:pagecheckerboard="0"
     inkscape:deskcolor="#d1d1d1"
     inkscape:zoom="12.229167"
     inkscape:cx="-1.6763203"
     inkscape:cy="26.003407"
     inkscape:window-width="2560"
     inkscape:window-height="1369"
     inkscape:window-x="1432"
     inkscape:window-y="-8"
     inkscape:window-maximized="1"
     inkscape:current-layer="svg2" />
  <circle
     style="fill:#FF7200;fill-opacity:0;stroke:#FF7200;stroke-width:2.57615;stroke-linecap:round;stroke-linejoin:round;stroke-opacity:1"
     id="path6"
     cx="17.878845"
     cy="17.878845"
     r="16.590771" />
  <path
     d="m 17.271456,25.984903 a 7,7 0 0 1 -1.2,-13.9 c 5.7,-1.1 7.2,-1.62 9.2,-4.1000001 1,2 2,4.1800001 2,8.0000001 0,5.5 -4.78,10 -10,10 z"
     id="path1"
     style="display:none" />
  <path
     d="m 8.2714562,26.984903 c 0,-3 1.8499998,-5.36 5.0799998,-6 2.42,-0.48 4.92,-2 5.92,-3"
     id="path2"
     style="display:none" />
  <path
     style="display:inline;fill:#FF7200;fill-opacity:1;stroke:none;stroke-width:0.0538695;stroke-linecap:round;stroke-linejoin:round"
     d="M 7.9713988,27.9194 C 7.6934118,27.820078 7.5296096,27.673753 7.3824075,27.393253 7.2467614,27.134774 7.2731876,26.297987 7.4438842,25.446597 7.7297563,24.02074 8.4495745,22.748002 9.5205924,21.774689 l 0.1846052,-0.167765 -0.075111,-0.25087 c -0.1310378,-0.43767 -0.1607569,-0.55976 -0.2334832,-0.959182 -0.4509007,-2.476406 0.3060208,-5.02924 2.0354076,-6.864723 0.934199,-0.991511 2.022193,-1.692046 3.28038,-2.112162 0.446202,-0.148989 0.698264,-0.207843 1.981361,-0.462625 1.739669,-0.345443 2.859823,-0.605032 3.700296,-0.857523 1.829785,-0.5496951 2.811185,-1.1745683 3.914354,-2.4923325 0.314851,-0.3760984 0.441006,-0.4822294 0.659456,-0.5547868 0.210357,-0.069869 0.539504,-0.04631 0.732887,0.052459 0.263147,0.1343998 0.373596,0.2772836 0.642513,0.8311943 0.645552,1.3296952 1.009364,2.250238 1.307032,3.307142 0.594271,2.110022 0.770998,4.814648 0.432809,6.623673 -0.563744,3.015549 -2.394286,5.678718 -5.086821,7.400574 -0.481297,0.307785 -1.529611,0.83057 -2.052657,1.023641 -0.768647,0.283729 -1.586924,0.488671 -2.385131,0.59737 -0.471168,0.06416 -1.614997,0.08818 -2.055424,0.04315 -2.272024,-0.232275 -4.298545,-1.370126 -5.640379,-3.166959 -0.118744,-0.159008 -0.226273,-0.292912 -0.238954,-0.297563 -0.03891,-0.01428 -0.343695,0.341023 -0.526737,0.61404 -0.5225783,0.779453 -0.7753423,1.590482 -0.830447,2.664606 -0.026956,0.525433 -0.07384,0.67818 -0.2772811,0.903365 C 8.7483485,27.91608 8.2971048,28.035772 7.9713988,27.9194 Z M 18.471758,24.910921 c 2.941814,-0.451176 5.551224,-2.377711 6.916833,-5.106718 0.06365,-0.127207 0.188173,-0.413423 0.276707,-0.636035 0.505942,-1.272158 0.678704,-2.428321 0.600484,-4.018583 -0.09084,-1.846913 -0.375593,-3.225971 -0.988238,-4.786088 -0.109568,-0.27902 -0.216272,-0.5306353 -0.237119,-0.5591458 -0.03482,-0.047622 -0.05894,-0.032561 -0.296576,0.1851983 -0.843846,0.7732645 -1.900004,1.3697055 -3.20756,1.8113935 -1.066358,0.360213 -2.253638,0.648797 -4.55343,1.106771 -1.291016,0.257089 -1.540719,0.320659 -2.009291,0.511528 -0.812635,0.331021 -1.439947,0.76295 -2.084413,1.435203 -1.348817,1.406972 -1.922002,3.399009 -1.53107,5.321043 0.0383,0.188306 0.07542,0.348153 0.08248,0.355216 0.0071,0.0071 0.08283,-0.01521 0.168381,-0.0495 0.498637,-0.19984 0.882199,-0.309629 1.861269,-0.532763 1.563046,-0.356225 3.701368,-1.426287 4.836784,-2.420432 0.523386,-0.458265 0.640657,-0.521025 0.97002,-0.519125 0.366028,0.0021 0.716508,0.221381 0.877332,0.54888 0.07046,0.143492 0.08096,0.1986 0.08096,0.425063 0,0.348012 -0.07537,0.505118 -0.383535,0.799437 -0.85782,0.819286 -2.357333,1.750895 -3.822967,2.375111 -0.859533,0.366077 -1.550998,0.587388 -2.457407,0.78652 -0.477908,0.104997 -1.258149,0.344078 -1.289749,0.395208 -0.02056,0.03327 0.319412,0.482152 0.581867,0.768257 0.559012,0.609384 1.46944,1.210534 2.304849,1.521875 0.345214,0.128655 0.873986,0.259892 1.221823,0.303247 0.143108,0.01784 0.292721,0.03803 0.332473,0.04487 0.195865,0.03372 1.392381,-0.01173 1.749095,-0.06644 z"
     id="path3" />
</svg>
